<svg version="1.1" id="Layer_1" xmlns="http://www.w3.org/2000/svg" xmlns:xlink="http://www.w3.org/1999/xlink" x="0px" y="0px"
	 width="100%" viewBox="0 0 500 500" enable-background="new 0 0 500 500" xml:space="preserve">
<path fill="#1F1F1F" opacity="1.000000" stroke="none" 
	d="
M367.000000,501.000000 
	C244.666702,501.000000 122.833389,501.000000 1.000065,501.000000 
	C1.000044,334.333405 1.000044,167.666809 1.000022,1.000155 
	C167.666550,1.000103 334.333099,1.000103 500.999756,1.000052 
	C500.999817,167.666519 500.999817,334.333038 500.999908,500.999756 
	C456.500000,501.000000 412.000000,501.000000 367.000000,501.000000 
M299.333130,289.880432 
	C302.669128,288.428406 306.005127,286.976379 309.398071,285.499542 
	C309.503113,286.114014 309.739441,287.496460 309.962341,288.800171 
	C315.514465,288.800171 320.796631,288.800171 326.306274,288.800171 
	C326.306274,261.186493 326.306274,233.786560 326.306274,206.316071 
	C320.659973,206.316071 315.277863,206.316071 309.421570,206.316071 
	C309.421570,211.356049 309.421570,216.084885 309.421570,221.033997 
	C296.919403,214.636337 286.001556,219.143845 285.306763,231.494156 
	C284.475861,246.264481 284.709869,261.136505 285.313843,275.930542 
	C285.694794,285.262024 289.690552,288.690491 299.333130,289.880432 
M157.201630,208.522842 
	C152.154404,211.665649 149.231461,216.427032 149.134171,222.136856 
	C148.847855,238.942383 148.559647,255.778427 149.277710,272.559479 
	C149.738266,283.322235 157.893066,289.738373 168.817078,289.856384 
	C179.891998,289.976044 188.231247,283.846527 188.727524,273.096191 
	C189.524338,255.835022 189.337738,238.499100 188.799927,221.218628 
	C188.549194,213.162079 182.789597,207.195160 174.938660,206.485748 
	C169.345901,205.980392 163.567642,207.527740 157.201630,208.522842 
M333.043274,263.500000 
	C333.043274,271.928650 333.043274,280.357330 333.043274,288.799866 
	C339.101959,288.799866 344.539032,288.799866 350.024078,288.799866 
	C350.338257,287.297363 350.613281,285.981995 350.943390,284.403229 
	C358.717957,292.362427 368.496399,291.195862 372.785370,282.060455 
	C373.894409,279.698273 374.792480,276.981049 374.828125,274.413544 
	C375.022308,260.422150 375.274597,246.414291 374.794312,232.436569 
	C374.446686,222.319611 367.909241,216.961960 358.377350,218.102051 
	C355.856171,218.403595 353.456848,219.723557 350.328369,220.809570 
	C350.328369,215.855026 350.328369,211.016266 350.328369,206.305664 
	C344.193268,206.305664 338.767761,206.305664 333.043274,206.305664 
	C333.043274,225.235031 333.043274,243.867508 333.043274,263.500000 
M200.111740,242.355392 
	C204.641998,247.008270 209.130127,251.703186 213.715881,256.300720 
	C217.386887,259.981171 218.924622,264.507660 218.331879,269.472626 
	C218.121460,271.235168 216.049850,272.775482 214.827881,274.417236 
	C213.521515,272.816101 211.366684,271.350159 211.085495,269.585632 
	C210.500763,265.916473 210.908783,262.089050 210.908783,258.352386 
	C205.050034,258.352386 199.962524,258.352386 194.699387,258.352386 
	C194.699387,262.589447 194.561462,266.555420 194.723862,270.509033 
	C195.345764,285.650482 205.071136,291.583710 220.621353,289.323364 
	C225.577042,288.603027 229.275909,286.019470 231.683334,281.659149 
	C237.589050,270.962738 235.840149,254.709534 227.558228,245.664658 
	C223.403442,241.127136 218.623260,237.161636 214.477905,232.616409 
	C212.664551,230.628113 211.246490,227.952316 210.624008,225.355026 
	C210.349136,224.208206 212.500275,222.479965 213.550018,221.015656 
	C214.849121,222.204025 216.607925,223.170425 217.318939,224.642792 
	C218.039841,226.135605 217.725525,228.128342 217.865555,229.914124 
	C223.489761,229.914124 228.760651,229.914124 234.741882,229.914124 
	C234.173157,226.040482 233.968323,222.399643 233.067383,218.940079 
	C230.603363,209.478424 223.998856,205.398636 212.415298,205.803650 
	C203.074112,206.130249 196.892776,211.156921 195.145203,220.067657 
	C193.607651,227.907516 194.411682,235.329529 200.111740,242.355392 
M280.560272,228.797607 
	C280.335114,226.647308 280.285004,224.461075 279.852325,222.353378 
	C278.504486,215.787720 276.351654,208.873657 269.004791,207.705292 
	C259.651062,206.217773 250.015839,206.500092 240.586533,206.023712 
	C240.586533,234.433273 240.586533,261.624664 240.586533,288.608826 
	C246.183243,288.608826 251.404709,288.608826 256.919128,288.608826 
	C256.919128,277.770477 256.919128,267.335693 256.919128,256.303375 
	C259.842255,256.303375 262.463654,256.444366 265.065186,256.276886 
	C272.831329,255.776886 277.108917,252.593323 278.868683,244.996307 
	C280.018707,240.031799 280.074768,234.813904 280.560272,228.797607 
M142.913361,215.568817 
	C142.913361,212.646042 142.913361,209.723267 142.913361,206.808655 
	C137.216034,206.808655 132.175537,206.808655 127.197495,206.808655 
	C127.197495,234.383957 127.197495,261.575073 127.197495,288.676056 
	C132.571304,288.676056 137.627930,288.676056 142.913315,288.676056 
	C142.913315,264.413055 142.913315,240.480743 142.913361,215.568817 
z"/>
<path fill="#F9F9F9" opacity="1.000000" stroke="none" 
	d="
M298.918610,289.870453 
	C289.690552,288.690491 285.694794,285.262024 285.313843,275.930542 
	C284.709869,261.136505 284.475861,246.264481 285.306763,231.494156 
	C286.001556,219.143845 296.919403,214.636337 309.421570,221.033997 
	C309.421570,216.084885 309.421570,211.356049 309.421570,206.316071 
	C315.277863,206.316071 320.659973,206.316071 326.306274,206.316071 
	C326.306274,233.786560 326.306274,261.186493 326.306274,288.800171 
	C320.796631,288.800171 315.514465,288.800171 309.962341,288.800171 
	C309.739441,287.496460 309.503113,286.114014 309.398071,285.499542 
	C306.005127,286.976379 302.669128,288.428406 298.918610,289.870453 
M302.108215,272.888763 
	C303.470123,274.056976 304.832031,275.225159 306.193939,276.393341 
	C307.203491,274.868530 309.048401,273.365906 309.089569,271.815369 
	C309.403290,260.009430 309.534607,248.190079 309.257324,236.385849 
	C309.214417,234.560104 306.795868,232.790176 305.475952,230.994461 
	C304.241272,232.840134 301.980804,234.662903 301.938995,236.535202 
	C301.675293,248.348602 301.903839,260.173004 302.108215,272.888763 
z"/>
<path fill="#FBFBFB" opacity="1.000000" stroke="none" 
	d="
M157.536896,208.340942 
	C163.567642,207.527740 169.345901,205.980392 174.938660,206.485748 
	C182.789597,207.195160 188.549194,213.162079 188.799927,221.218628 
	C189.337738,238.499100 189.524338,255.835022 188.727524,273.096191 
	C188.231247,283.846527 179.891998,289.976044 168.817078,289.856384 
	C157.893066,289.738373 149.738266,283.322235 149.277710,272.559479 
	C148.559647,255.778427 148.847855,238.942383 149.134171,222.136856 
	C149.231461,216.427032 152.154404,211.665649 157.536896,208.340942 
M165.020706,234.550049 
	C165.020584,238.369980 165.010925,242.189957 165.022324,246.009857 
	C165.045624,253.815048 164.860092,261.632111 165.281128,269.416138 
	C165.374207,271.137238 167.629425,272.741394 168.889053,274.399384 
	C170.163208,272.787292 171.735947,271.319397 172.608002,269.513184 
	C173.202316,268.282196 172.860306,266.578247 172.862579,265.085693 
	C172.877563,255.286743 172.893646,245.487686 172.862534,235.688812 
	C172.850952,232.042603 173.002487,228.355255 172.487427,224.771774 
	C172.288727,223.389282 170.445801,222.243103 169.352005,220.989243 
	C167.998032,222.201859 165.819077,223.214157 165.465637,224.669724 
	C164.777084,227.505554 165.110977,230.589661 165.020706,234.550049 
z"/>
<path fill="#FCFCFC" opacity="1.000000" stroke="none" 
	d="
M333.043274,263.000000 
	C333.043274,243.867508 333.043274,225.235031 333.043274,206.305664 
	C338.767761,206.305664 344.193268,206.305664 350.328369,206.305664 
	C350.328369,211.016266 350.328369,215.855026 350.328369,220.809570 
	C353.456848,219.723557 355.856171,218.403595 358.377350,218.102051 
	C367.909241,216.961960 374.446686,222.319611 374.794312,232.436569 
	C375.274597,246.414291 375.022308,260.422150 374.828125,274.413544 
	C374.792480,276.981049 373.894409,279.698273 372.785370,282.060455 
	C368.496399,291.195862 358.717957,292.362427 350.943390,284.403229 
	C350.613281,285.981995 350.338257,287.297363 350.024078,288.799866 
	C344.539032,288.799866 339.101959,288.799866 333.043274,288.799866 
	C333.043274,280.357330 333.043274,271.928650 333.043274,263.000000 
M351.227051,232.958542 
	C351.098206,246.244888 350.863342,259.532379 351.007355,272.815765 
	C351.021484,274.119690 353.362732,275.398376 354.623810,276.688782 
	C355.728790,275.428711 357.771210,274.184998 357.793579,272.905975 
	C358.014771,260.254211 358.078522,247.592407 357.776611,234.943222 
	C357.683685,231.048248 355.302399,229.592026 351.227051,232.958542 
z"/>
<path fill="#FAFAFA" opacity="1.000000" stroke="none" 
	d="
M199.893219,242.070374 
	C194.411682,235.329529 193.607651,227.907516 195.145203,220.067657 
	C196.892776,211.156921 203.074112,206.130249 212.415298,205.803650 
	C223.998856,205.398636 230.603363,209.478424 233.067383,218.940079 
	C233.968323,222.399643 234.173157,226.040482 234.741882,229.914124 
	C228.760651,229.914124 223.489761,229.914124 217.865555,229.914124 
	C217.725525,228.128342 218.039841,226.135605 217.318939,224.642792 
	C216.607925,223.170425 214.849121,222.204025 213.550018,221.015656 
	C212.500275,222.479965 210.349136,224.208206 210.624008,225.355026 
	C211.246490,227.952316 212.664551,230.628113 214.477905,232.616409 
	C218.623260,237.161636 223.403442,241.127136 227.558228,245.664658 
	C235.840149,254.709534 237.589050,270.962738 231.683334,281.659149 
	C229.275909,286.019470 225.577042,288.603027 220.621353,289.323364 
	C205.071136,291.583710 195.345764,285.650482 194.723862,270.509033 
	C194.561462,266.555420 194.699387,262.589447 194.699387,258.352386 
	C199.962524,258.352386 205.050034,258.352386 210.908783,258.352386 
	C210.908783,262.089050 210.500763,265.916473 211.085495,269.585632 
	C211.366684,271.350159 213.521515,272.816101 214.827881,274.417236 
	C216.049850,272.775482 218.121460,271.235168 218.331879,269.472626 
	C218.924622,264.507660 217.386887,259.981171 213.715881,256.300720 
	C209.130127,251.703186 204.641998,247.008270 199.893219,242.070374 
z"/>
<path fill="#F8F8F8" opacity="1.000000" stroke="none" 
	d="
M280.590576,229.253555 
	C280.074768,234.813904 280.018707,240.031799 278.868683,244.996307 
	C277.108917,252.593323 272.831329,255.776886 265.065186,256.276886 
	C262.463654,256.444366 259.842255,256.303375 256.919128,256.303375 
	C256.919128,267.335693 256.919128,277.770477 256.919128,288.608826 
	C251.404709,288.608826 246.183243,288.608826 240.586533,288.608826 
	C240.586533,261.624664 240.586533,234.433273 240.586533,206.023712 
	C250.015839,206.500092 259.651062,206.217773 269.004791,207.705292 
	C276.351654,208.873657 278.504486,215.787720 279.852325,222.353378 
	C280.285004,224.461075 280.335114,226.647308 280.590576,229.253555 
M262.815704,223.716141 
	C261.068207,222.892181 259.320679,222.068222 256.979523,220.964355 
	C256.979523,228.381500 256.979523,234.643387 256.979523,240.959793 
	C261.436615,241.894409 263.641754,239.695511 263.849243,235.861893 
	C264.052704,232.102142 263.430939,228.297714 262.815704,223.716141 
z"/>
<path fill="#FBFBFB" opacity="1.000000" stroke="none" 
	d="
M142.913330,216.058624 
	C142.913315,240.480743 142.913315,264.413055 142.913315,288.676056 
	C137.627930,288.676056 132.571304,288.676056 127.197495,288.676056 
	C127.197495,261.575073 127.197495,234.383957 127.197495,206.808655 
	C132.175537,206.808655 137.216034,206.808655 142.913361,206.808655 
	C142.913361,209.723267 142.913361,212.646042 142.913330,216.058624 
z"/>
<path fill="#2A2A2A" opacity="1.000000" stroke="none" 
	d="
M302.039001,272.441254 
	C301.903839,260.173004 301.675293,248.348602 301.938995,236.535202 
	C301.980804,234.662903 304.241272,232.840134 305.475952,230.994446 
	C306.795868,232.790176 309.214417,234.560104 309.257324,236.385849 
	C309.534607,248.190079 309.403290,260.009430 309.089569,271.815369 
	C309.048401,273.365906 307.203491,274.868530 306.193939,276.393341 
	C304.832031,275.225159 303.470123,274.056976 302.039001,272.441254 
z"/>
<path fill="#292929" opacity="1.000000" stroke="none" 
	d="
M165.021057,234.060486 
	C165.110977,230.589661 164.777084,227.505554 165.465637,224.669724 
	C165.819077,223.214157 167.998032,222.201859 169.352005,220.989243 
	C170.445801,222.243103 172.288727,223.389282 172.487427,224.771774 
	C173.002487,228.355255 172.850952,232.042603 172.862534,235.688812 
	C172.893646,245.487686 172.877563,255.286743 172.862579,265.085693 
	C172.860306,266.578247 173.202316,268.282196 172.608002,269.513184 
	C171.735947,271.319397 170.163208,272.787292 168.889069,274.399384 
	C167.629425,272.741394 165.374207,271.137238 165.281128,269.416138 
	C164.860092,261.632111 165.045624,253.815048 165.022324,246.009857 
	C165.010925,242.189957 165.020584,238.369980 165.021057,234.060486 
z"/>
<path fill="#2B2B2B" opacity="1.000000" stroke="none" 
	d="
M351.468109,232.628296 
	C355.302399,229.592026 357.683685,231.048248 357.776611,234.943222 
	C358.078522,247.592407 358.014771,260.254211 357.793579,272.905975 
	C357.771210,274.184998 355.728790,275.428711 354.623810,276.688782 
	C353.362732,275.398376 351.021484,274.119690 351.007355,272.815765 
	C350.863342,259.532379 351.098206,246.244888 351.468109,232.628296 
z"/>
<path fill="#242424" opacity="1.000000" stroke="none" 
	d="
M262.993530,224.114517 
	C263.430939,228.297714 264.052704,232.102142 263.849243,235.861893 
	C263.641754,239.695511 261.436615,241.894409 256.979523,240.959793 
	C256.979523,234.643387 256.979523,228.381500 256.979523,220.964355 
	C259.320679,222.068222 261.068207,222.892181 262.993530,224.114517 
z"/>
</svg>